<svg width="136" height="137" viewBox="0 0 136 137" fill="none" xmlns="http://www.w3.org/2000/svg">
<path d="M25 29.3047L81 11.8047L118 34.3047L61.5 53.8047L25 29.3047Z" fill="#F5BE05"/>
<path d="M62 55.5L119 36V59L62 80V55.5Z" fill="#F5BE05"/>
<path d="M25 31.5L60 55V80L25 53V31.5Z" fill="#F5BE05"/>
<path d="M21 51.5L60 81.5L36.5 96.5L0 63.5L21 51.5Z" fill="#F5BE05"/>
<path d="M62 81.5L122.5 59.5L135.5 83L79 108L62 81.5Z" fill="#F5BE05"/>
<path d="M61 83L78.5 110L121 91.5V112.5L62 136.5L61 83Z" fill="#F5BE05"/>
<path d="M22 85.5L36 98L59.5 84L60.5 136.5L22 105V85.5Z" fill="#F5BE05"/>
</svg>
